<?xml version="1.0" encoding="utf-8"?>

<!-- Uploaded to: SVG Repo, www.svgrepo.com, Generator: SVG Repo Mixer Tools -->
<svg fill="#000000" height="800px" width="800px" version="1.1" id="Icons" xmlns="http://www.w3.org/2000/svg" xmlns:xlink="http://www.w3.org/1999/xlink" 
	 viewBox="0 0 32 32" xml:space="preserve">
<g>
	<path d="M16.9,15.8l-0.5-2l2-0.5c0.5-0.1,0.9-0.7,0.7-1.2c-0.1-0.5-0.7-0.9-1.2-0.7l-2.5,0.7l-2.8-1.6l2.8-1.6l2.5,0.7
		c0.1,0,0.2,0,0.3,0c0.4,0,0.8-0.3,1-0.7c0.1-0.5-0.2-1.1-0.7-1.2l-2-0.5l0.5-2c0.1-0.5-0.2-1.1-0.7-1.2c-0.5-0.1-1.1,0.2-1.2,0.7
		l-0.7,2.5l-2.8,1.6V5.6l1.9-1.9c0.4-0.4,0.4-1,0-1.4s-1-0.4-1.4,0l-1.4,1.4L9.1,2.3c-0.4-0.4-1-0.4-1.4,0s-0.4,1,0,1.4l1.9,1.9v3.2
		L6.7,7.2L6,4.6C5.9,4.1,5.4,3.8,4.8,3.9C4.3,4.1,4,4.6,4.1,5.2l0.5,2l-2,0.5C2.1,7.8,1.8,8.3,2,8.9c0.1,0.4,0.5,0.7,1,0.7
		c0.1,0,0.2,0,0.3,0l2.5-0.7l2.8,1.6l-2.8,1.6l-2.5-0.7c-0.5-0.1-1.1,0.2-1.2,0.7s0.2,1.1,0.7,1.2l2,0.5l-0.5,2
		c-0.1,0.5,0.2,1.1,0.7,1.2c0.1,0,0.2,0,0.3,0c0.4,0,0.8-0.3,1-0.7l0.7-2.5l2.8-1.6v3.2l-1.9,1.9c-0.4,0.4-0.4,1,0,1.4s1,0.4,1.4,0
		l1.4-1.4l1.4,1.4c0.2,0.2,0.5,0.3,0.7,0.3s0.5-0.1,0.7-0.3c0.4-0.4,0.4-1,0-1.4l-1.9-1.9v-3.2l2.8,1.6l0.7,2.5
		c0.1,0.4,0.5,0.7,1,0.7c0.1,0,0.2,0,0.3,0C16.7,16.9,17,16.4,16.9,15.8z"/>
	<path d="M28.7,23.6l-1.9,0.5L25,23l1.8-1.1l1.9,0.5c0.1,0,0.2,0,0.3,0c0.4,0,0.8-0.3,1-0.7c0.1-0.5-0.2-1.1-0.7-1.2l-1.4-0.4
		l0.4-1.4c0.1-0.5-0.2-1.1-0.7-1.2c-0.5-0.1-1.1,0.2-1.2,0.7l-0.5,1.9L24,21.3v-2.1l1.4-1.4c0.4-0.4,0.4-1,0-1.4s-1-0.4-1.4,0l-1,1
		l-1-1c-0.4-0.4-1-0.4-1.4,0s-0.4,1,0,1.4l1.4,1.4v2.1l-1.8-1.1l-0.5-1.9c-0.1-0.5-0.7-0.9-1.2-0.7c-0.5,0.1-0.9,0.7-0.7,1.2
		l0.4,1.4l-1.4,0.4c-0.5,0.1-0.9,0.7-0.7,1.2c0.1,0.4,0.5,0.7,1,0.7c0.1,0,0.2,0,0.3,0l1.9-0.5L21,23l-1.8,1.1l-1.9-0.5
		c-0.5-0.1-1.1,0.2-1.2,0.7c-0.1,0.5,0.2,1.1,0.7,1.2l1.4,0.4l-0.4,1.4c-0.1,0.5,0.2,1.1,0.7,1.2c0.1,0,0.2,0,0.3,0
		c0.4,0,0.8-0.3,1-0.7l0.5-1.9l1.8-1.1v2.1l-1.4,1.4c-0.4,0.4-0.4,1,0,1.4s1,0.4,1.4,0l1-1l1,1c0.2,0.2,0.5,0.3,0.7,0.3
		s0.5-0.1,0.7-0.3c0.4-0.4,0.4-1,0-1.4L24,26.9v-2.1l1.8,1.1l0.5,1.9c0.1,0.4,0.5,0.7,1,0.7c0.1,0,0.2,0,0.3,0
		c0.5-0.1,0.9-0.7,0.7-1.2l-0.4-1.4l1.4-0.4c0.5-0.1,0.9-0.7,0.7-1.2S29.3,23.4,28.7,23.6z"/>
</g>
</svg>